# xmcd CD database file
#
# Track frame offsets:
#	150
#	18860
#	30265
#	42957
#	58982
#	72712
#	89205
#	99425
#	114202
#	130802
#	146007
#	158475
#	172230
#	180872
#	189027
#
# Disc length: 2751 seconds
#
# Revision: 2
# Processed by: cddbd v1.4PL0 Copyright (c) Steve Scherf et al.
# Submitted via: CDex 1.40Beta9
#
DISCID=c30abd0f
DTITLE=Various Artist - 75 Years of the WSM Grand Ole Opry
DYEAR=1900
DGENRE=Country
TTITLE0=George Jones and Tammy Wynette - One
TTITLE1=Patty Loveless - Timber I'm Falling in Love
TTITLE2=Bill Anderson - Still
TTITLE3=Reba McEntire - Somebody Should Leave
TTITLE4=Marty Stuart and Travis Tritt - Honky Tonkin's What I Do Best
TTITLE5=Barbara Mandrell - I Was Country When Country Wasn't Cool
TTITLE6=Roy Acuff - I Like Mountain Music
TTITLE7=Steve Wariner - Life's Highway
TTITLE8=Cal Smith - Country Bumpkin'
TTITLE9=Jeanne Pruett - Satin Sheets
TTITLE10=Jimmy C. Newman - Louisiana Saturdady Night
TTITLE11=Uncle Dave Macon - When the Train Comes Along
TTITLE12=Webb Pierce - I Ain't Never
TTITLE13=Porter Wagner - Sugarfoot Rag
TTITLE14=Chely Wright and Brad Paisley - Hard to be a Husband, Hard to be a Wife
EXTD=ID3G: 2
EXTT0=
EXTT1=
EXTT2=
EXTT3=
EXTT4=
EXTT5=
EXTT6=
EXTT7=
EXTT8=
EXTT9=
EXTT10=
EXTT11=
EXTT12=
EXTT13=
EXTT14=
PLAYORDER=
